<svg width="36" height="35" viewBox="0 0 36 35" fill="none" xmlns="http://www.w3.org/2000/svg">
<g filter="url(#filter0_d_993_142)">
<path d="M16.1 1.81C16.7-.03 19.3-.03 19.9 1.81L21.8 7.61C22.07 8.43 22.83 8.99 23.7 8.99H29.81C31.75 8.99 32.55 11.47 30.98 12.61L26.06 16.16C25.35 16.67 25.06 17.57 25.33 18.4L27.21 24.16C27.82 26 25.71 27.54 24.14 26.41L19.17 22.82C18.47 22.31 17.53 22.31 16.83 22.82L11.86 26.41C10.29 27.54 8.18 26 8.79 24.16L10.67 18.4C10.94 17.57 10.65 16.67 9.94 16.16L5.02 12.61C3.45 11.47 4.25 8.99 6.19 8.99H12.3C13.17 8.99 13.93 8.43 14.2 7.61L16.1 1.81Z" fill="#FFA928"/>
</g>
<defs>
<filter id="filter0_d_993_142" x="0.186401" y="0.431458" width="35.6272" height="34.3619" filterUnits="userSpaceOnUse" color-interpolation-filters="sRGB">
<feFlood flood-opacity="0" result="BackgroundImageFix"/>
<feColorMatrix in="SourceAlpha" type="matrix" values="0 0 0 0 0 0 0 0 0 0 0 0 0 0 0 0 0 0 127 0" result="hardAlpha"/>
<feOffset dy="4"/>
<feGaussianBlur stdDeviation="2"/>
<feComposite in2="hardAlpha" operator="out"/>
<feColorMatrix type="matrix" values="0 0 0 0 0 0 0 0 0 0 0 0 0 0 0 0 0 0 0.25 0"/>
<feBlend mode="normal" in2="BackgroundImageFix" result="effect1_dropShadow_993_142"/>
<feBlend mode="normal" in="SourceGraphic" in2="effect1_dropShadow_993_142" result="shape"/>
</filter>
</defs>
</svg>
